<?xml version="1.0" standalone="no"?>
<!DOCTYPE svg PUBLIC "-//W3C//DTD SVG 20010904//EN"
 "http://www.w3.org/TR/2001/REC-SVG-20010904/DTD/svg10.dtd">
<svg version="1.0" xmlns="http://www.w3.org/2000/svg"
 width="600.000000pt" height="600.000000pt" viewBox="0 0 600.000000 600.000000"
 preserveAspectRatio="xMidYMid meet">
<metadata>
Created by potrace 1.11, written by Peter Selinger 2001-2013
</metadata>
<g transform="translate(0.000000,600.000000) scale(0.100000,-0.100000)"
fill="#000000" stroke="none">
<path d="M2828 5995 c-2 -1 -42 -5 -89 -9 -47 -4 -95 -8 -105 -10 -10 -2 -46
-7 -79 -11 -32 -3 -62 -8 -65 -10 -3 -1 -26 -6 -53 -9 -106 -14 -451 -116
-562 -166 -22 -10 -77 -34 -121 -54 -112 -50 -220 -107 -343 -184 -102 -64
-256 -173 -276 -196 -6 -6 -30 -27 -55 -46 -76 -58 -191 -169 -300 -287 -128
-139 -317 -393 -303 -407 4 -3 1 -6 -5 -6 -6 0 -21 -17 -32 -37 -12 -21 -31
-56 -43 -78 -12 -22 -26 -43 -31 -46 -5 -4 -5 -12 -2 -18 4 -6 3 -11 -2 -11
-9 0 -33 -46 -101 -191 -40 -87 -93 -227 -120 -319 -12 -41 -26 -85 -31 -97
-10 -23 -65 -290 -75 -360 -3 -23 -8 -57 -10 -75 -26 -183 -26 -577 -1 -739 3
-13 7 -45 10 -70 10 -73 15 -98 36 -194 11 -49 22 -99 25 -110 9 -42 39 -140
44 -145 3 -3 6 -9 6 -15 1 -27 18 -75 26 -75 6 0 8 -4 5 -9 -18 -28 235 -561
266 -561 5 0 7 -4 4 -9 -7 -11 147 -238 204 -300 8 -9 28 -35 45 -56 16 -22
48 -59 71 -82 23 -24 40 -43 38 -43 -2 0 42 -45 98 -100 55 -54 105 -97 110
-94 5 3 7 2 6 -3 -2 -5 16 -26 40 -47 23 -21 42 -35 42 -32 0 4 13 -6 28 -21
62 -61 281 -213 307 -213 9 0 14 -4 10 -9 -3 -5 5 -13 17 -16 13 -4 30 -13 38
-20 23 -19 195 -106 301 -153 106 -46 319 -124 319 -116 0 3 9 0 19 -6 17 -8
191 -55 246 -66 11 -2 31 -6 45 -9 14 -3 41 -7 60 -9 19 -3 46 -7 60 -10 186
-36 579 -41 815 -12 124 16 158 21 250 42 39 9 81 18 95 20 59 11 302 87 332
104 10 6 23 10 29 10 6 0 32 10 58 23 25 13 48 23 51 23 11 -2 95 39 102 49 4
5 8 7 8 2 0 -14 358 188 415 235 6 5 38 29 73 54 34 25 62 50 62 56 0 5 4 7 8
4 4 -2 23 9 42 25 157 136 276 250 273 261 -2 5 3 8 10 8 8 0 20 11 27 25 7
14 17 25 21 25 4 0 33 33 65 72 33 40 69 84 82 98 12 14 22 28 22 32 0 4 8 15
18 25 23 22 159 229 193 293 13 25 27 46 32 48 4 2 7 10 7 17 0 8 11 31 25 51
14 20 22 40 19 45 -3 5 0 9 5 9 6 0 11 4 11 9 0 5 15 42 34 83 65 137 162 420
180 521 3 15 7 35 10 45 9 28 27 131 50 282 20 130 27 513 12 655 -4 39 -10
90 -12 115 -3 25 -7 52 -9 60 -2 8 -7 38 -11 65 -3 28 -8 54 -11 58 -2 4 -6
20 -8 35 -5 33 -12 68 -19 90 -3 9 -7 28 -10 42 -3 14 -14 57 -26 95 -12 39
-26 86 -32 105 -34 116 -159 396 -237 535 -56 98 -86 145 -93 145 -5 0 -8 5
-8 11 0 9 -66 111 -96 148 -7 9 -43 54 -81 101 -91 115 -196 227 -319 341
-130 120 -416 329 -450 329 -10 0 -14 3 -10 7 6 7 -37 34 -76 49 -10 3 -18 10
-18 15 0 5 -9 9 -19 9 -11 0 -21 4 -23 8 -4 10 -158 85 -175 85 -7 0 -13 3
-13 7 0 21 -363 148 -532 186 -10 2 -28 6 -40 9 -83 20 -222 44 -293 51 -27 2
-63 6 -80 9 -31 6 -452 15 -457 10z"/>
</g>
</svg>
